<?xml version="1.0" encoding="utf-8"?>
<!-- Generator: Adobe Illustrator 21.1.0, SVG Export Plug-In . SVG Version: 6.00 Build 0)  -->
<svg version="1.1" id="Layer_1" xmlns="http://www.w3.org/2000/svg" xmlns:xlink="http://www.w3.org/1999/xlink" x="0px" y="0px"
	 viewBox="0 0 640 480" style="enable-background:new 0 0 640 480;" xml:space="preserve">
<style type="text/css">
	.st0{fill:#FFFFFF;}
</style>
<g>
	<path d="M391.3,439c4.5-0.8,7-3.9,9.5-7.4c6.3-8.7,9.3-18.4,8.9-29.1c-0.4-12.2-1.1-24.5-1.7-36.8c-0.4-7.9-0.9-15.9-1.4-23.8
		c0-0.7,0-1.5,0-2.2c-0.3,0-0.5,0-0.8,0c1,16.3,1.9,32.6,2.9,48.9c-0.1,0-0.3,0-0.4,0c-0.1-2.5-0.2-4.9-0.4-7.4
		c-0.7-10-2-20.1-2.1-30.2c-0.2-38.2,0-76.4,0-114.5c0-10,0.2-19.9,0.4-29.9c0.1-5.2,0.5-10.4,0.7-15.5c0.4-8.6-1.9-18-5.7-23.3
		c1.1,3.7,2.3,7.5,3.3,11.4c0.3,1.1,1,2.9,0.5,3.4c-1.1,1.3-0.7,2.5-0.4,3.5c2,6.6,0.9,13.3,0.8,19.9c-0.1,24.8-0.4,49.5-0.7,74.3
		c-0.1,14.1-0.3,28.3-0.4,42.4c0,2.4,0,4.8-0.3,7.2c0-13.2,0-26.3,0-39.5c-0.1,0-0.3,0-0.4,0c0,16.4,0,32.8,0,49.2
		c0.1,0,0.3,0,0.4,0c0-1.8,0-3.7,0-5.5c0.2,0,0.4,0,0.5,0c0,21.2,0,42.4,0,63.7c-0.1,0-0.2,0-0.3,0c0-1.8,0-3.7,0-5.4
		c-0.1-9.2-0.2-18.3-0.4-27.4c-0.4-15.7-0.8-31.3-1.1-47.1c-0.1-9.2,0-18.4,0.1-27.6c0.1-11.4,0.3-22.8,0.4-34.3
		c0.2-17.2,0.3-34.4,0.4-51.7c0-6.3,0.4-12.5,0-18.8c-0.7-11.5-5.1-21.4-13.8-29.2c-1.5-1.3-2.8-2.8-4.2-4.2
		c-0.1-0.1-0.2-0.2-0.3-0.3c-2.6-1.7-5.2-3.3-8-5.1c1.5,2.8,2.9,5.5,4.2,8.3c0.8,1.7,1.6,3.3,2,5.1c0.7,2.9-0.8,5-3.7,5.5
		c-4.7,0.9-9-0.5-12.9-3.1c-2.2-1.5-4.2-3.3-6.3-5c0.1-0.1,0.2-0.3,0.4-0.4c1.4,1.1,2.7,2.2,4.1,3.3c0.7,0.5,1.5,1,2.3,1.2
		c0.4,0.1,0.9-0.3,1.8-0.7c2.9,2.1,6.8,3.2,11,2.6c0.8-0.1,1.6-1.2,2.4-1.8c-0.1-0.2-0.2-0.4-0.3-0.5c-2.7,0-5.4,0-8.1,0
		c0-0.1,0-0.2,0-0.4c1.5,0.1,3,0.1,5.1,0.2c-1.8-3.3-3.4-6.2-5-9c0,0,0.1,0,0.1-0.1c-3.1-5.5-5.1-11.4-5.8-17.7
		c0.5,1.7,1,3.4,1.5,5.1c0.4,1.6,0.8,3.2,1.3,4.7c0.8,2.5,1.2,2.5,4,1.4c-1-3.8-1.9-7.6-3-11.4c-1.6-5.4-3.4-10.8-4.8-16.3
		c-0.5-2,0-4.2,0.3-6.3c0.4-4,0.8-8,0.9-12c-2.5,4.4-1.5,9.3-2.4,14.2c-0.8-1-1.5-2.1-2.2-3c-1,3.1,1.3,5.3,1.6,8.7
		c-0.9-1.7-1.5-2.9-2.1-4.2c-0.1,0-0.3,0.1-0.4,0.1c0.8,3,2,6,2.5,9.1c0.4,2.4,0.2,4.9,0,7.3c0,0.4-0.9,0.8-1.9,1.7c0-2.3,0-4,0-5.9
		c0,0,0.4-0.1,1.3-0.5c-1.1-0.3-1.6-0.4-2.1-0.5c-3.2-0.1-5.1-1.6-5.7-4.4c0.8,0.8,1.5,2.1,2.5,2.4c1.2,0.4,2.6,0.2,3.9-0.1
		c0.5-0.1,0.8-1.2,1.2-1.8c-4,2.8-3.6,2.1-6-0.3c-0.7-0.7-0.7-2.1-1-3.3c-0.1-0.5-0.2-1.1-0.4-1.6c-0.2,0-0.5,0.1-0.7,0.1
		c0.2,1.5,0.4,3.1,0.7,4.6c-0.4-1-1-2.1-1.1-3.1c-0.2-1.6-1-2.2-2.4-2.2c-1.8,0-2.7-0.6-2.1-2.7c-4.7-0.3-9.3-0.5-13.8-0.8
		c-0.1-0.2-0.2-0.4-0.3-0.7c0.5-0.3,1.1-0.8,1.7-0.8c2.3,0,4.6,0.2,6.9,0.3c0.6,0,1.2-0.3,1.8-0.6c-4.5-1.5-9.6,0.4-14.1-2.6
		c5,0,9.6-0.1,14.2,0c3.2,0.1,6.4,0.5,9.6,0.5c2.1,0,4.1-0.4,6.1-0.7c-0.6-0.2-1.4-0.5-2.3-0.8c0.7,0,1.4-0.1,2.1-0.2
		c0-0.1,0-0.1,0-0.2c-10-0.8-20-1.7-30-2.6c-0.7,2.4-1.3,4.6-2,6.7c-0.2,0-0.3-0.1-0.5-0.1c1.3-5.9,2.5-11.8,3.9-17.7
		c0.3-1.2,1.6-2.1,2.2-3.2c0.4-0.7,0.5-1.5,0.8-2.2c-0.8,0.1-1.7,0.1-2.4,0.5c-1,0.7-1.9,1.6-2.6,2.3c0-1.8-0.3-3.7,0.1-5.4
		c0.4-2.1,1.7-3.8,3.9-4.5c2.1-0.6,3.4-0.2,5.7,1.8c-1.9,1.8-3.8,3.5-2.6,6.6c0.5,1.3,0.1,2.9,0.5,4.5c0.4-1.7,0.8-3.3,1.3-5.2
		c0.6,0.9,1.1,1.7,2,2.9c0.4-1.7,0.6-2.8,0.7-3.4c1.4,0.1,2.8,0.2,4.2,0.3c-0.6,1.4-0.6,1.4-3.8,2.1c0,0.4,0,0.8,0,1.3
		c0,0.4,0,0.7,0,0.8c4.8,1,8.9-0.8,13.2-2.3c-1-2.6-3.3-0.7-5.3-1.5c1.5-0.2,2.5-0.4,3.4-0.5c0-0.1,0-0.3,0-0.4
		c-1.6-0.2-3.2-0.3-4.7-0.5c-1.5-0.3-3.5,0.5-3.7-2.2c-1.3,0.2-2.5,0.4-3.7,0.6c3.1-1.5,6.4-0.8,9.6-0.7c2.4,0.1,4.8,0.5,7.2,0.3
		c1.1-0.1,2.3-1.1,3.1-2c1-1.2,0.5-2.3-0.8-3.1c-0.1,0,0.2-0.8,0.3-1.3c-1.2-0.1-2.5-0.3-3.8-0.4c-0.4,0-1.1-0.1-1.3,0.1
		c-1.7,2.7-3.9,0.5-5.8,0.4c-1,0-1.9-1.3-2.9-2c4.3,0.4,8.6,0.7,12.8,1c0-0.1,0-0.3,0-0.4c-3.6-0.3-7.2-0.6-10.9-0.9
		c-1.1-0.1-2.2-0.3-3.3-0.7c-0.4-0.1-0.6-0.8-0.9-1.2c0.1-0.2,0.2-0.4,0.4-0.7c-2.1-0.1-4.1-0.2-6.1-0.3c0-0.1,0-0.3,0-0.4
		c1.1-0.1,2.3-0.2,3.4-0.3c0-0.1,0-0.2,0-0.3c-4.9-0.4-9.7-0.9-14.6-1.3c0-0.1,0-0.3,0-0.4c11.1,0.8,22.2,1.7,33.3,2.5
		c1.1-2.8,0.8-3.6-1.9-3.8c-12.2-0.8-24.5-1.6-36.8-2.4c-0.2,0-0.4,0-0.9,0.1c0,1-0.1,2.1-0.2,3.3c1.3,0.1,2.4,0.1,3.4,0.2
		c0,0.1,0,0.1,0,0.2c-1,0-2,0-3,0c0,0.1,0,0.2,0,0.4c0.3,0.1,0.6,0.2,0.8,0.3c-2.1,1.7-0.9,4.2-1.1,6.2c-0.3,4.6-0.1,9.3-0.1,14
		c0,1.5,0.5,2,2,1.9c1.4,0,2.8,0,4.3,0c-0.4,2.1-0.8,4.1-1.2,6.2c-1.4,0.1-3,0.3-4.7,0.5c0,1,0,2,0,3.1c1.3,0,2.4,0.1,3.9,0.2
		c-0.1,0.8-0.2,1.4-0.3,2.1c-0.2-3-2.3-1-3.4-1.6c0,1.2,0,2.1,0,3.4c1.3-0.7,2.4-1.3,3.5-1.9c-0.8,3.8-1.4,7.5-2.3,11.3
		c-0.4,1.6-1.2,3.1-1.4,5c0.8-1,1.8-1.9,2.2-3c0.9-2.7,1.7-5.5,2.3-8.4c1.2-5.4,2.2-10.9,3.3-16.3c0.1-0.6,0.4-1.3,0.9-1.8
		c-1.3,7.8-2.6,15.5-3.9,23.3c0.1,0,0.3,0,0.4,0.1c0.8-1.7,1.5-3.4,2.5-5.7c1.4,2.9,2.5,5.4,3.7,7.8c-0.1,0.1-0.3,0.1-0.4,0.2
		c-0.7-1-1.3-2.1-2.1-3.1c-1.9-0.3-2.6,0.7-2.9,2.4c-0.2,1.1-0.6,2.1-1.1,3.1c-1.2,2.5-3.5,3.4-5.7,2.6c-2.1-0.8-3.3-3.7-2.7-6.3
		c0.2,1.1,0.4,2.1,0.7,3.1c0.2,0,0.4,0,0.6-0.1c0.1-1.8,0.2-3.7,0.4-5.5c-0.2,0-0.4-0.1-0.7-0.1c-0.3,0.4-0.5,0.9-0.9,1.6
		c0-0.7-0.2-1.2,0-1.6c0.5-1.5-0.1-1.9-1.5-1.9c-16.4-0.1-32.9-0.3-49.3-0.2c-11.2,0-22.4,0.5-33.6,0.8c-5,0.1-10,0.4-15,0.8
		c-1.6,0.1-3.1,0.8-4.6,1.3c0.2,0.2,0.4,0.4,0.5,0.5c-0.2,0.9-0.4,1.7-0.6,3c0.5,0.3,1.4,0.8,2.4,1.4c-0.5,0.5-1.1,1.3-1.8,2
		c0.8,0.1,1.5,0.2,1.6,0.2c0.9,2.2,1.6,4,2.6,6.3c-0.9-0.3-2.2-0.2-2.5-0.7c-1-1.7-1.9-0.5-2.9-0.4c0.7,2.5,1.3,4.8,1.9,7.3
		c-4.8,0.7-7.4,4.5-11.2,7.5c0.9-2.5,1.7-4.6,2.5-6.9c-0.5-0.2-1.1-0.4-1.8-0.7c0.2-2.1,0.4-4.2,0.6-6.3c0.8-0.2,1.6-0.4,2.3-0.5
		c0-0.1,0-0.3,0.1-0.4c-1-0.2-1.9-0.4-3.3-0.7c1.6-0.6,2.6-1,3.6-1.4c0-0.2-0.1-0.4-0.1-0.6c-0.8,0-1.6-0.1-2.4-0.1
		c0.1-2.1,0.1-2.1,3.8-4c-2.2-0.7-4.2-1.6-4-4.3c1.6-0.9,3.2-1.8,4.9-2.7c0-0.1,0-0.3,0-0.4c-2.5,0.2-5.1,0.3-7.8,0.5
		c0-0.1,0.1-0.6,0.1-1.1c-0.4,0-0.7,0-1.3,0.1c0.3-0.6,0.4-1.1,0.7-1.3c1.6-1.3,2.2-2.4-0.3-3.4c-0.2-0.1-0.1-2,0.4-2.6
		c0.9-1,2.2-1.7,3.9-2.8c-1-0.5-1.8-1.1-2.7-1.3c-1.8-0.4-2-1.6-1-2.5c3.4-3.4,2.6-7.6,2.8-11.7c0.1-2.7,0-5.4,0-8.4
		c-0.1-0.2-0.5-0.6-0.9-1.1c0.5-0.4,1-0.9,1.5-1c5-1,10-1.8,15.1-2.7c0.1,0.3,0.1,0.5,0.2,0.8c-1.4,0.4-2.8,0.8-4.2,1.3
		c-2.3,0.8-2.9,2-2,3.1c-0.2,1.2,0,2.1-0.4,2.7c-1.7,2.6,1.3,7-3,8.9c0.7-0.2,1.5-0.3,2.2-0.6c1.3-0.5,2.1,0.4,2.3,1.3
		c0.1,0.3-1,1.2-1.7,1.6c-0.4,0.3-1.1,0.2-1.7,0.7c2.7,0,5.4,0,8.6,0c-5.4,1.9-10.2,3.6-14.9,5.3c3.7-0.5,7.7-1.2,11.7-1.7
		c-0.8,0.3-1.7,0.5-2.5,0.8c0,0.1,0,0.2,0,0.3c3.3,0.1,6.6,0.3,10,0.4c-2.7,0.7-5.2,1.3-7.8,1.9c0.8,0.3,1.5,0.3,2.2,0.2
		c8-0.8,16-2,24.1-2.5c11.3-0.7,22.7-1,34-1.5c1.3,0,2.6-0.3,4-0.4c0.1,0.3,0.3,0.9,0.4,0.9c1.7,0.1,3.5,0.2,5.3,0.3
		c5.8,0.3,11.7,0.7,17.6,0.9c2.7,0.1,5.4,0,8.2-0.2c0.6,0,1.3-0.4,1.9-0.7c0-0.2-0.1-0.4-0.1-0.7c-0.8-0.2-1.7-0.5-2.5-0.6
		c-3.3-0.2-6.7-0.4-10-0.4c-6.9,0.1-13.9,0.3-20.8,0.5c-0.6-0.1-1.3-0.3-1.9-0.3c-15.6,0.3-31.3,0.5-46.9,0.8c-5,0.1-10,0.1-15,0.2
		c20.9-3.1,41.9-3.2,62.9-3.4c12-0.1,24.1,0,36.4,0c0,5,0,9.9,0,15c-21.3,0-42.8,0-64.3,0c0,0.2,0,0.4,0,0.7c21.6,0,43.2,0,64.8,0
		c0,0.2,0,0.4,0,0.6c-0.8,0.1-1.6,0.2-2.4,0.3c1.4,0.2,2.9,0,3,2.4c0.3-0.1,0.5-0.3,0.8-0.4c0-18.7,0-37.4,0-56.1c0.2,0,0.3,0,0.5,0
		c0,2.4,0,4.8,0,7.2c0,12.2,0,24.4,0.2,36.6c0,3.4,0.4,6.8,0.7,10.2c0,0.7,0.4,1.3,1.1,1.9c-0.2-3-0.5-6.1-0.5-9.1
		c0-9.2,0.1-18.3,0.2-27.4c0.1-6.8,0.2-13.7,0.4-20.5c0.1-2.8,2.2-5,5-5.6c0.9-0.2,1.7-0.8,2.8-1.3c-4.9-1.7-8.2,0.6-10.3,3.9
		c-1.3,2.1-1.3,5.3-1.4,8c-0.2,3.1,0,6.2-0.1,9.2c-0.1-1.4-0.7-1.9-2.1-1.9c-19.4,0.2-38.8,0-58.3,0.6c-13.8,0.4-27.5,1.6-41.2,2.7
		c-3.7,0.3-7.4,1.5-11,2.3c0.1-0.2,0.3-0.5,0.6-1.1c-1,0.2-1.9,0.4-3.5,0.6c0.6-3.4,1.1-6.4,1.6-9.3c-0.7-0.3-1.8-0.6-1.8-1
		c-0.1-0.8,0.2-2,0.8-2.3c2.1-1.4,4.3-2.5,6.8-3.8c-1.3-0.6-2.7-1.2-4-2.1c-0.5-0.4-1-1.3-0.9-1.9c0.3-4.1,2.6-6.6,6.4-7.4
		c6.4-1.3,12.8-2.8,19.2-3.6c23.9-2.9,48-2.8,72-2.2c17.1,0.4,34.3,1.5,51.4,2.7c5.8,0.4,11.6,1.7,17.3,3c4.5,1,6.5,2.6,6.7,8.4
		c0,1.2,0,2.2-1.7,2.4c-0.5,0.1-1,0.8-1.1,0.8c0.8,1.9,1.3,3.4,1.9,4.9c-1.4,0.3-2.8,0.5-4.3,0.8c4.5,1.6,9.2,3.2,7.5,9.6
		c-1.1,0.1-2.5,0.2-3.9,0.4c0.7,0.7,1.3,1.4,1.8,1.9c-3.5-1.1-7.1-2.3-11.1-3.5c0,1.7,0,2.8,0,3.9c3.5,1.2,7.4,1,11,3.6
		c-1.1-0.1-1.5-0.1-1.9-0.2c0,1.1-0.2,2.1-0.1,3c0,0.4,0.6,1,0.9,1c0.5,0,0.9-0.5,1.7-1.1c0,5,0,9.8,0,14.7c-0.4,0-1.2,0-2.3-0.1
		c1.1,2.6,6.9,1.7,4.5,6.7c1.2,1.1,2.7,2.3,1.7,4.6c-1.2,0-2.3,0-3.8,0c0,0.6-0.1,1.4-0.2,2.2c-0.8,0.2-1.7,0.4-2.4,0.6
		c1.9,0.8,3.9,1.6,5.9,2.5c0.3,0.1,0.7,0.8,0.5,1c-0.3,0.5-0.8,1.2-1.3,1.3c-0.8,0.1-1.7-0.3-2.6-0.3c-0.9,0-1.8,0.1-2.7,0.2
		c0,0.2-0.1,0.4-0.1,0.7c0.8,0.5,1.7,1,2.7,1.6c-0.1,0.7-0.2,1.5-0.4,2.2c-0.4,1.7-2.1,3.6,0.7,5c0.3,0.1,0.2,1.3,0.2,1.9
		c0,3.2,0,6.5,0,10c-0.6,0.2-1.6,0.6-2.8,1c1,1.3,2,2.5,2.9,3.7c-0.1,0.1-0.2,0.2-0.4,0.4c-2.6-2.1-5.3-4.1-7.6-6
		c0.6,4.2,0.6,4.2,3.9,6c-0.8-0.2-1.7-0.4-2.5-0.6c0.3,4.4,0.8,5,5,5.9c3.4,0.8,6.9,1.5,10.3,2.3c0.4,0.1,0.7,0.2,1,0.4
		c6.8,5,12.6,11,15.4,19.2c0.7,1.9,0.6,4.1,0.8,6.1c0.1,1.4-0.5,2.1-2.2,1.1c0.2,0.7,0.2,1.2,0.5,1.5c0.5,0.4,1.1,0.8,1.7,1.1
		c0.3-0.6,0.7-1.1,0.8-1.7c0.7-4.6-0.6-8.8-2.5-12.9c-0.2-0.4-0.5-0.8-0.5-1.3c5.1,6.4,8.9,13.5,10.3,21.6c0.6,3.6,0.9,7.2,0.8,10.9
		c-0.1,12.8-0.4,25.6-0.6,38.4c-0.1,7.5,0,14.9,0,22.3c-0.2,0-0.4,0-0.7,0c-0.2-3-0.4-6.1-0.6-9.1c-0.1-2,0-4-0.3-6
		c-0.3-2.4,0.4-4.7-1.8-6.9c-1.4-1.4-1.5-4.2-2.3-7c-0.3,1.3-0.4,1.9-0.5,2.5c-0.2,0-0.4,0-0.6,0c0.9-5.2-0.8-10.2-0.9-15.4
		c-0.2,0-0.5,0-0.7,0c0.4,6.3,0.7,12.6,1.1,19.3c0.6-0.7,1-1.2,1.8-2.1c0.5,2.5,1,4.8,1.5,7.2c0.5-0.6,0.9-1.1,1.3-1.6
		c0.3,0,0.5,0,0.8,0c0,4.5,0.1,9-0.1,13.4c0,1.1-1.1,2.1-1.4,3.2c-0.5,1.7-1,3.4-1,5.1c0,2.1-0.8,3.5-2.8,4.7c0-3.3,0-6.3,0-9.3
		c0.1,0,0.2,0,0.3,0c0.2,0.5,0.4,1,0.5,1.5c0.2,0,0.4,0,0.5-0.1c-0.7-3.5-1.3-6.9-2-10.4c-0.1,0-0.2,0-0.4,0c0,6.8,0.1,13.7,0,20.5
		c-0.1,6.9,0.2,13.8-0.8,20.6c-0.8,5.5-0.4,11.1-0.2,16.7c0.5,20.5,1.1,40.9,1.9,61.4c0.4,11,1.2,21.9,2.1,32.9
		c0.5-3.2,1-6.3,1.5-9.6c2.2-0.3,3.3-1.6,3.4-3.8c0-1-0.1-1.9-0.1-2.9c0-5.5,0-11,0-16.6c0.2,0.2,0.4,0.3,0.4,0.3
		c0.2,13.5,0.8,26.9,0.4,40.4c-0.4,15.3-6.8,27.6-20,36c-0.6,0.4-1.2,0.7-2,0.7c0.4-0.2,0.7-0.4,1.1-0.7c0.3-0.3,0.6-0.5,1-0.9
		c-2.7,0.9-5.3,1.7-7.8,2.6c0-0.2-0.1-0.3-0.1-0.5C389.6,440.6,390.5,439.8,391.3,439L391.3,439z M406.3,252.9
		c0.2-0.8,0.5-1.5,0.5-2.3c0.1-6,0.3-12,0.3-18c0-6.2,0-12.3,0-18.5c-0.3,0-0.5,0-0.8,0C406.3,227,406.3,240,406.3,252.9
		c0,3,0,5.9,0,8.8c0.1,0,0.3,0,0.4,0C406.6,258.8,406.4,255.8,406.3,252.9z M411.2,403.8C411.2,403.8,411.2,403.9,411.2,403.8
		c0.1-0.2,0.2-0.4,0.2-0.6c0-0.1-0.2-0.2-0.5-0.4c-0.2,1.7-0.5,3.2-0.7,4.7c-0.8,6.7-0.6,13.7-4.7,19.6c-0.1,0.1,0,0.4,0,0.4
		c1.3-1,2.5-2.2,4-3c2.1-1.2,3.7-4.6,3.1-6.3c0.8-1.6,1.4-2.8,2.1-4c-0.3-0.2-0.5-0.4-0.8-0.5c-0.4,0.8-0.8,1.6-1.2,2.4
		c-0.2-0.2-0.4-0.4-0.6-0.6c0.9-2.9,1.9-5.7,2.9-8.6c-0.1,0-0.2,0-0.3-0.1c-0.4,0.4-0.7,0.8-1,1.3c-0.1,0-0.2-0.1-0.2-0.2
		c0.7-2,1.4-4,2.1-6c-0.1,0-0.2-0.1-0.3-0.1c-0.6,0.9-1.1,1.8-1.7,2.7C412.5,404.4,411.8,404.1,411.2,403.8z M248.8,50.2
		c1.1,0.2,2.1,0.6,3.2,0.6c9.8-0.2,19.6-0.6,29.5-0.5c12.8,0,25.6,0.4,38.4,0.6c0.8,0,1.6-0.1,2.4-0.2c-2-0.6-4-0.9-6-0.9
		c-17.5-0.2-35.1-0.4-52.6-0.6c-3,0-5.9,0-8.9,0.2c-2,0.1-4,0.5-6,0.7c-0.5-0.1-1-0.3-1.5-0.2c-4.4,0.4-8.9,0.8-13.3,1.3
		c0,0,0,0.1,0,0.2c0.7,0,1.4,0.1,2.1,0.1c0,0,0,0.1,0,0.2c-0.6,0.1-1.2,0.2-1.8,0.4c0,0.2,0,0.4,0.1,0.6c4.8-0.4,9.6-0.9,14.5-1.4
		C248.8,51.1,248.8,50.5,248.8,50.2z M320.2,101.7c-4.2,0-8.4-0.1-12.4,0c-24.6,1.1-49.3,2.2-73.9,3.5c-3.3,0.2-6.5,1.2-9.7,2
		c-3.3,0.8-6.4,1.8-9.3,2.6c0.2,0,0.8,0.2,1.7,0.4c-2.1,0.5-3.7,0.9-5.4,1.3c36.3-3.7,72.7-3.9,109.3-3.3c0-1.1,0-2,0-3.1
		c-26-0.6-51.9-0.4-77.7,0.5c25.9-2.1,51.8-1.4,77.8-1.4C320.4,103.2,320.3,102.4,320.2,101.7z M213.7,104.6
		c0.1,0.3,0.1,0.6,0.2,0.9c21.3-1.7,42.5-3.5,63.8-5.2c0.1-0.2,0.1-0.4,0.2-0.5c-0.4-0.3-0.8-0.9-1.3-0.9c-2-0.2-4-0.4-6-0.3
		c-9,0.4-18.1,0.6-27.1,1.5c-8.9,0.8-17.8,2.2-26.7,3.4C215.8,103.6,214.8,104.2,213.7,104.6z M271.4,55.1c0-0.2-0.1-0.5-0.1-0.7
		c-0.7,0-1.4-0.2-2.1-0.2c-4.8,0-9.6,0.1-14.5,0.2c-11.3,0.2-22.6,0.3-33.8,2.4c-2.5,0.5-5,1.2-7.5,1.8c0,0.3,0.1,0.6,0.2,0.9
		c2,0,3.9,0.1,5.9,0c12.5-0.9,25.1-1.8,37.6-2.8c1.3-0.1,3,0.4,3.8-1.3c0.1-0.2,0.9-0.3,1.2-0.1c2.5,1.7,5.3,0.5,7.9,0.5
		C270.4,55.7,270.9,55.3,271.4,55.1z M370,49.2c-1-0.7-1.7-1.5-2.5-1.7c-4.5-1.1-9-2.3-13.6-3c-2.6-0.4-5.4,0.4-8,0.4
		c-4,0.1-7.8,1.2-11.3,2.9c-2.7,1.3-3.9,3.8-5,6.4c2.4-1.5,4.4-3.5,6.6-5.2c1.1-0.8,2.1-4.1,4.3-1c0.1,0.1,0.7-0.1,1.1-0.1
		c0.8,0,1.5-0.1,2.2-0.1c0,0.1,0,0.2,0,0.3c-0.4,0.1-0.7,0.3-1.1,0.4c0-0.1,0-0.3,0.1-0.4C351.6,48.4,360.5,48.8,370,49.2z
		 M364.9,105c0.1-1.8-0.7-2.3-2.3-2.4c-2.3,0-4.6-0.3-6.9-0.4c-7-0.4-13.9-0.8-20.9-1.2c-0.3,1.3-0.4,2.4-0.7,3.6
		c9.9,0.3,19.4,0.6,29,0.9c-0.8-0.1-1.6-0.2-2.3-0.3c0-0.1,0-0.2,0-0.3C362.1,105,363.4,105,364.9,105z M315.7,56.2
		c0.4,0,0.7,0.1,0.9,0.1c0.7-0.3,1.3-0.6,1.9-0.9c-0.6-0.4-1.1-1-1.7-1.2c-0.8-0.3-1.6-0.4-2.4-0.4c-11.1,0-22.1-0.1-33.2-0.1
		c-0.5,0-1.1,0.2-1.7,0.3c0,0.3,0,0.6,0.1,0.8c10.9,0.2,21.9,0.5,32.9,0.7c1,0,2-0.4,3-0.7C315.6,55.2,315.7,55.7,315.7,56.2z
		 M256.2,111.5c0,0.2,0,0.4,0,0.6c21.4,0,42.8,0,64.1,0c0-0.2,0-0.4,0-0.6C298.9,111.5,277.6,111.5,256.2,111.5z M340.9,43.7
		c0-0.1,0-0.2,0-0.3c-1-0.1-2-0.2-2.9-0.4c0,0,0-0.1,0-0.2c0.8,0,1.5-0.1,2.2-0.1c-0.3-0.4-0.6-0.5-1-0.5
		c-7.4-0.3-14.8-0.7-22.2-0.9c-1.5,0-3,0.5-4.6,0.8c0,0.2,0,0.4,0.1,0.5C322,43,331.5,43.3,340.9,43.7z M223.3,111.8
		c0,0.3,0,0.7,0,1c12.7,0.8,25.4-1.6,38-1.7c0-0.2,0-0.5,0-0.7C248.6,110.9,235.9,111.3,223.3,111.8z M368.3,83.4
		c0.1-0.1,0.3-0.1,0.4-0.2c0-8.8,0-17.5,0-26.3c-0.3,0-0.5-0.1-0.8-0.2c-0.3,0.7-0.8,1.4-0.8,2.1c-0.1,1.5,0.1,2.9,0.2,4.4
		c0.1,6,0.2,12,0.4,18C367.6,82,368.1,82.7,368.3,83.4z M364,53.7c0.1,0.1,0.3,0.3,0.4,0.4c0.6-0.6,1.3-1.1,2.1-1.8
		c-5.6-2.7-19.9-3.6-26-1.9c3.1,0.2,6.1,0.4,9.1,0.7c4.2,0.4,8.6,0.1,12.1,2.2c1.1-0.3,1.8-0.4,2.6-0.6
		C364.1,53,364.1,53.4,364,53.7z M371.1,93.4c2.5-2.8,2-7.4-0.8-8.3c-2.2,2.8-0.9,6.3-1.5,9.4c0.4-0.9,0.8-1.7,1.3-2.7
		C370.4,92.4,370.7,92.8,371.1,93.4z M365.9,83.2c0.2,0,0.4,0,0.6,0c0-7.8,0-15.6,0-23.4c-0.2,0-0.4,0-0.6,0
		C365.9,67.6,365.9,75.4,365.9,83.2z M347.5,98.7c0-0.2,0-0.4,0.1-0.6c3.7,0,7.3,0,11,0c-3-0.4-6.1-0.6-9.1-0.6
		c-2.9,0-6-0.9-8.8,1.3c3.6,0.3,7,0.6,10.4,0.8c0-0.1,0-0.2,0-0.3C349.8,99.1,348.6,98.9,347.5,98.7z M406.7,264.4
		c-0.1,0-0.3,0-0.4,0.1c0,6.7,0,13.4,0,20c0.1,0,0.3,0,0.4,0C406.7,277.7,406.7,271.1,406.7,264.4z M360.7,88.7
		c1.5,0.4,2.8,0.8,4.1,1.1c0.4,0.1,0.9-0.2,1.4-0.3c-0.2-0.5-0.3-1.2-0.7-1.4c-1.4-0.6-2.8-1.1-4.5-1.7
		C360.8,87.3,360.7,87.9,360.7,88.7z M362.2,95.3c-4.1,0-7.6,0-11.2,0C358,96.9,360,96.9,362.2,95.3z M379.7,158.2
		c1.6-1.1,0.6-4.5-1.5-6.3C376.5,154.5,379.6,155.8,379.7,158.2z M354.8,115.8c1.4-0.3,2.8-0.5,4.1-0.7c0-0.2,0-0.4,0.1-0.7
		c-1.3-0.5-2.7-1-4.3-1.6C354.7,114.2,354.7,115.1,354.8,115.8z M318.1,60c0-0.1,0-0.2,0.1-0.4c-3.2,0-6.5,0-9.7,0
		c0,0.1,0,0.2,0,0.4C311.7,60,314.9,60,318.1,60z M209.5,132.2c0.4,0.8,0.8,1.5,1.2,2.4c0.8-0.8,1.6-1.7,2.4-2.6
		c-0.2-0.2-0.3-0.4-0.5-0.5C211.6,131.7,210.6,131.9,209.5,132.2z M361.5,119.5c0.8,0.9,1.5,1.6,2.2,2.3c0.2-0.4,0.6-1,0.5-1.4
		C364,119.3,363.4,118.4,361.5,119.5z M293.9,43.6C293.9,43.6,293.9,43.6,293.9,43.6c-3.3-0.1-6.7-0.1-10-0.1c0,0,0,0.1,0,0.1
		C287.2,43.6,290.6,43.6,293.9,43.6z M209.5,63.1c0,0.3,0.1,0.5,0.2,0.8c1.8-0.4,3.5-0.8,5.3-1.3c-0.1-0.3-0.2-0.6-0.3-0.9
		C213,62.1,211.3,62.6,209.5,63.1z M374.9,129.3c0,0.3,0.1,0.6,0.1,0.9c1.6-0.2,3.1-0.4,4.6-0.6c0-0.2,0-0.4-0.1-0.7
		C378,129.1,376.4,129.2,374.9,129.3z"/>
	<path d="M226.2,151.6c-0.4,0.6-0.8,1.3-1.3,2c0.9,0.4,1.8,0.9,2.3,1.2c-3.7,0.3-8,0.8-12.4,0.9c-4.6,0.1-8,2.5-11.7,5
		c6.4-3.3,13.2-4.6,20.3-4.7c-3.4,0.9-7,1.4-10.3,2.7c-9.8,3.8-17.1,10.3-21.6,20c-3.2,6.8-3.6,13.9-3.4,21.3
		c0.4,14.6,0.3,29.1,0.4,43.7c0.1,9.8,0.1,19.6,0.4,29.4c0.4,11.5,1.5,23,1.6,34.5c0.1,16.3-0.2,32.6-0.5,48.9
		c-0.3,13.7-1,27.4-1.2,41.1c-0.1,9.5,2.3,18.5,7.5,26.7c1.6,2.5,3.9,4.4,5.8,6.8c-1.8-1.3-3.7-2.7-5.6-4.1c-0.8,0.2-1.8,0.5-3,0.9
		c0.6,0.8,1.1,1.3,2.1,2.5c-2.2-0.4-3.8-0.8-5.3-1.1c0,0.1-0.1,0.1-0.1,0.2c1.3,0.5,2.5,1,3.7,1.6c1.6,0.7,3,1.3,3.1,3.6
		c0,1,1.9,2.1,3.1,2.9c0.7,0.5,1.7,0.7,2.4,1.3c-2.9-0.8-6.2-0.1-8.6-3.1c-6.3-7.5-10.2-15.9-10.3-25.5c-0.2-15.1,0.4-30.2,0.5-45.3
		c0.1-18.8,0.2-37.5,0-56.3c-0.1-17.8-0.5-35.5-0.8-53.4c-0.2-15.2-0.4-30.4-0.7-45.5c-0.1-5.8-0.4-11.6-0.4-17.4
		c-0.2-13.6,5.1-25,14.4-34.7c1.8-1.9,3.5-3.8,5.4-5.7c0.5-0.5,1.3-1.1,2.1-1.3c3.9-0.9,7.9-1.7,11.8-2.5c0.1,0,0.3-0.1,0.4,0
		C219.5,149.3,222.9,150.5,226.2,151.6z M191.6,423.5c-0.2,0.3-0.4,0.6-0.5,0.9c1.4,0.8,2.8,1.5,4.2,2.2c0.2-0.4,0.4-0.8,0.6-1.2
		c-1.1-0.5-2.1-0.9-3.2-1.4c0.4-0.3,0.7-0.6,1-0.9c-0.7-0.5-1.3-1-2-1.4c-0.4-0.2-1.3-0.2-1.3,0c-0.2,0.5-0.3,1.2-0.1,1.7
		C190.3,423.5,191.1,423.4,191.6,423.5z M184.9,277.9c-0.1,0-0.2,0-0.3,0c0,20.3,0,40.7,0,61c0.1,0,0.2,0,0.3,0
		C184.9,318.5,184.9,298.2,184.9,277.9z M183.7,256.4c0.1,0,0.3,0,0.4,0c0-12.7,0-25.5,0-38.2c-0.1,0-0.3,0-0.4,0
		C183.7,230.9,183.7,243.7,183.7,256.4z M183.3,214.6c0.3,0,0.5,0,0.8,0c0-5.3,0-10.5,0-16c-1.2-0.4-1.6,0.3-1.5,1.6
		c0.1,3.7,0.3,7.4,0.4,11.1C183.1,212.4,183.2,213.5,183.3,214.6z M185.2,341c-0.1,0-0.1,0-0.2,0.1c0,8.6,0,17.2,0,25.8
		c0.1,0,0.1,0,0.2,0C185.2,358.3,185.2,349.7,185.2,341z"/>
	<path d="M381.2,439c-0.5,1.8-2,2-3.5,2.1c-0.9,0-1.9,0-3.1,0c0.6-0.4,0.9-0.7,1.5-1.1c-2.5-0.6-4.8-1.3-7.1-1.7
		c-2.4-0.4-4.8-0.3-6.9,1.3c-0.5,0.4-1.4,0.1-2.1,0.1c-0.9,0-1.8,0-2.8,0.5c0.5,0.3,0.9,0.6,1.4,0.9c-2.2,0-4.5,0-6.7,0
		c0,0.2,0,0.4,0,0.6c9.4,1.6,18.9,2.3,28.4,1.7c0,0.2,0.1,0.4,0.1,0.6c-1.6,0.6-3.2,1.1-5.3,1.9c2.4,0.7,4,0,5.3-1.4l0,0
		c1.1,0.4,2.1,0.8,3.4,1.2c-0.1-0.3-0.1-0.2,0-0.1c0,0.3,0.1,0.5,0.2,0.8c0,0.1,0.2,0.2,0.3,0.8c-1.2-0.1-2.4-0.2-3.7-0.4
		c0.2,0.3,0.4,0.5,0.9,1.3c-2.8,0.5-5.4,1-8.7,1.6c0.7-1.1,0.9-1.5,1.2-2l0,0.1c0.8-0.3,1.7-0.6,2.5-0.9c0-0.1,0-0.3,0-0.4
		c-12.8,0.4-25.5,0.7-38.8,1.1c4.9-3.3,9.6-0.9,14.2-1.3c0.8-0.1,1.6,0,2.4-0.1c-11.3-1.5-57.6-3.7-71.4-0.7
		c3.2-0.2,6.4-0.4,9.7-0.5c0,0.1,0,0.3,0,0.4c-10.8,1.4-21.6,2.9-32.4,4.3c0-0.2,0-0.4-0.1-0.6c6.2-1.1,12.7-0.5,18.5-3.7
		c-16,1.3-31.8,4.2-48,3.7h0c0.4-0.3,0.8-0.8,1.1-0.8c9.1,0.2,18.1-1.3,27-2.9c0.4,0,0.8,0,1.1-0.2c7.1-3.3,14.7-1.9,22.1-2.5
		c0.7-0.1,1.5,0,2.2-0.4c-5.9,0-11.8,0-17.7,0c0,0.1,0,0.2,0,0.3c26.4-1.3,52.9-2.5,79.3-3.7c0,0,0,0.1,0,0.2
		c-4.5,0.5-9,0.9-13.7,1.4c14.5,0.2,28.6-0.4,42-5.3c0.8,0.3,1.7,0.6,2.9,1.1c-1.7,0.5-3,0.9-4.4,1.3c0,0.2-0.1,0.3-0.1,0.5
		c2.9,0.4,5.9,0.8,8.8,1.3C381.3,439.1,381.2,439,381.2,439z M354.6,445c0-0.1,0-0.2,0.1-0.3c-2.5-0.1-5-0.2-7.5-0.4
		c0,0.2,0,0.4,0,0.7C349.7,445,352.1,445,354.6,445z"/>
	<path d="M349.1,451.4c1.1,0.1,2.5,0.1,3.9,0.2c0,0.2,0,0.4,0,0.6c-1.7,0.2-3.3,0.3-5,0.6c-15.8,2.9-31.7,1.3-47.6,2.3
		c-7,0.4-14,0.6-20.9,0.8c0-0.2,0-0.4,0-0.6c14-1,28-1.9,42-2.9c0-0.3,0-0.6,0-0.9c-3.7-0.2-7.5-0.8-11.2-0.6
		c-10.9,0.5-21.7,1.2-32.5,2.1c-10.4,0.8-20.9,1.3-31.4,0.4c4.2-0.4,8.4-0.6,12.6-1.1c2.1-0.3,4-1.5,6-1.8c2.6-0.3,5.3-0.1,8,0.4
		c-0.5,0.4-1,0.8-1.6,1.2c0,0.1,0.1,0.3,0.2,0.4c1.3-0.5,2.6-1.1,4-1.7c0-0.2-0.1-0.4-0.2-0.6c-0.6-0.1-1.2-0.3-1.8-0.4
		c0-0.2,0-0.5,0.1-0.7c6.3,0.4,12.5,1.1,18.7,1.1c10.2,0.1,20.4-0.1,30.5-0.5c4.4-0.2,8.8-1.1,13.2-1.6c1-0.1,2.1,0.4,3.1,0.5
		c0.7,0.1,1.4,0.2,2,0.1c2.3-0.5,4.3-0.4,6.7,0.2c4.6,1.2,9.6,1,14.3,1.3c1.1,0.1,2.2-0.1,3.3-0.2c0,0.3,0,0.5,0,0.8
		C360.2,451.1,354.5,451.3,349.1,451.4z"/>
	<path d="M313,86c-15,0.2-30,0.4-45,0.7c-15,0.4-30,1-45,1.5c-0.1-0.2-0.1-0.4-0.2-0.7c1-0.5,2-1.5,3.1-1.6
		c4.1-0.4,8.2-0.9,12.2-0.5c5.6,0.6,11.2,0.1,16.8,0c5.4-0.1,10.7-0.1,16-0.3c4.8-0.2,9.6-0.6,14.5-0.7c3.7-0.1,7.4-0.2,11,0
		c5.5,0.2,11,0.7,16.5,1C313,85.7,313,85.8,313,86z"/>
	<path d="M262.5,72.4c16.1-0.4,32.2-0.9,48.2-1.3c0,0.1,0,0.2,0,0.3c-3.6,0-7.2,0-10.8,0c0,0.2,0,0.4,0,0.5c6.7,0,13.4,0,20.3,0
		c0,0.8,0.1,1.6,0.2,2.7c-0.9-1.2-1.6-2.4-2.5-0.3c-0.2,0.5-1.3,1-2,0.9c-0.6,0-1.3-0.7-1.9-1.2c-0.7-0.5-1.4-1.5-2.1-1.5
		c-4.4-0.1-8.7-0.1-13.2-0.1c2.1,0.4,4.1,0.8,6.1,1.2c0,0.3-0.1,0.5-0.1,0.8c-0.4,0.1-0.9,0.4-1.4,0.4c-8.3,0.2-16.7,0.4-25,0.4
		c-1.2,0-2.3-0.8-3.5-1.1c-2.4-0.5-4.7-1.2-7.1-1.5c-1.7-0.2-3.6,0-5.4,0C262.6,72.7,262.6,72.6,262.5,72.4z"/>
	<path d="M380.7,449.3c-15.2,6.4-31.3,8.7-47.5,10.3c1.3-0.2,2.6-0.4,3.9-0.5c1.3-0.2,2.6-0.4,4.2-0.6c-0.7-0.3-1.2-0.4-1.7-0.6
		c0-0.2,0-0.4,0-0.5c3.9-0.6,7.7-1.3,11.6-1.9c0-0.1,0-0.2,0-0.3c-3.6,0-7.2,0-10.8,0c0-0.1,0-0.2,0-0.3
		C353.6,453,367.1,451.2,380.7,449.3z"/>
	<path d="M391.4,439c-1.2,0.5-2.4,1.1-3.6,1.5c-2.1,0.6-4.3,1.1-6.3,1.6c-0.1-1.3-0.2-2.2-0.3-3c0,0,0.1,0,0.1,0.1
		c-0.3-0.4-0.6-0.8-0.8-1c1-0.3,2-0.5,3-0.8c0-0.4-0.1-0.7-0.1-1c-1.7-0.1-3.3-0.1-5-0.2c0-0.1,0-0.3,0-0.4c1.1-0.1,2.3-0.5,3.4-0.4
		c9.7,1,16.8-2.6,20.8-11.8c0.1,2.2-1.7,7.2-3.6,8.9c-2.1,2-4.4,3.8-6.6,5.6c-0.4,0.4-0.8,0.8-1.3,1.2
		C391.3,439,391.4,439,391.4,439z"/>
	<path d="M307.1,76.2c-4.2,2.8-8.2,2-12.2,1.6c-3-0.3-6.1-0.4-9.1-0.1c-1.4,0.1-2.7,0.8-4.3,0.6c-2.1-0.3-4-0.3-5.4-2.1
		C286.3,76.2,296.4,76.2,307.1,76.2z"/>
	<path d="M250.5,442.6c-0.6,0.2-1.2,0.7-1.7,0.7c-3.7-0.2-7.4-0.6-11.1-0.6c-2.4,0-4.8,0.7-7.2,0.8c-3.9,0.1-7.8,0.1-11.7,0
		c-2.2-0.1-4.5-0.6-6.7-1.3c3.3,0.2,6.7,0.4,10,0.5c0,0,0-0.1,0-0.1c-3.6-0.7-7.1-1.3-10.7-2c0-0.2,0-0.3,0.1-0.5
		c3,0.5,6.1,1.2,9.2,1.4c3,0.3,6,0.1,9.1,0.2c3.8,0.1,7.7,0.4,11.6,0.5C244.3,442.3,247.4,442.5,250.5,442.6L250.5,442.6z"/>
	<path d="M416,319.6c0,12.3,0,24.6,0,36.8c-0.3,0-0.5,0-0.8,0c0-12.3,0-24.6,0-36.8C415.5,319.6,415.8,319.6,416,319.6z"/>
	<path d="M374,447.7l0-0.1c-3.9,1.7-7.9,1.8-12,1.5c-1.7-0.1-3.3,0.1-5,0.1c-0.8,0-1.5-0.4-2.3-0.9c0.6-0.1,1.2-0.4,1.8-0.4
		c5.3-0.3,10.6-0.6,16-0.8C372.9,447,373.4,447.5,374,447.7z"/>
	<path d="M352.8,145c3.6,3.2,7.2,6.4,10.8,9.6c0-0.3,0.1-0.6,0.2-1.1c1.3,1.3,2.5,2.3,3.9,3.6c-3.4,0.4-4.9-1.9-6.7-3.6
		c-2.9-2.7-5.7-5.6-8.5-8.4C352.6,145.1,352.7,145.1,352.8,145z"/>
	<path d="M374.7,152.1c0,0.1-0.1,0.1-0.1,0.1c-0.7,1.7-3,2.1-4.9,0.8c1.4-2,1.4-2-2.4-5.1c0.1-0.2,0.2-0.3,0.3-0.5
		C370,149.1,372.4,150.6,374.7,152.1z"/>
	<path d="M209.7,435.5c5.8,1.9,11.5,3.9,17.1,5.8C220.6,441.4,215.3,438.1,209.7,435.5z"/>
	<path d="M230.4,449c-0.8,0.1-1.7,0.3-3.2,0.5c1.3,0.5,2.1,0.8,2.9,1c0,0.1,0,0.3-0.1,0.4c-3.4-0.4-6.9-0.9-10.3-1.4
		c0-0.2,0-0.4,0-0.5C223.3,449,226.9,449,230.4,449C230.4,449,230.4,449,230.4,449z"/>
	<path d="M209.9,445.9c-3.8-2-7.7-4-11.5-6c0.1-0.1,0.1-0.3,0.2-0.4c2.7,1.1,5.5,1.9,8.1,3.2C208,443.3,208.8,444.8,209.9,445.9
		L209.9,445.9z"/>
	<path d="M380.3,444.4c3.5-0.6,6.9-1.2,10.4-1.8c0,0.3,0.1,0.5,0.1,0.8C387.6,445.4,383.8,444.2,380.3,444.4L380.3,444.4z"/>
	<path d="M395.6,80.7c-3.9,0-7.8,0-11.7,0c0,0.1,0,0.3,0,0.4c3.8-0.5,7.7-1,11.6-1.5C395.5,80,395.6,80.4,395.6,80.7z"/>
	<path d="M411.5,278.8c0,0.9,0.2,1.9-0.1,2.8c-0.1,0.4-1,0.7-1.6,0.7c-0.4,0-1-0.4-1.2-0.8c-0.1-0.3,0.3-0.8,0.6-1.2
		c0.4-0.5,1-1,1.5-1.5C411,278.7,411.3,278.8,411.5,278.8z"/>
	<path d="M408.7,406.3c0-5,0-10,0-15c0,0,0.1,0,0.2,0c0,5,0,10,0,15C408.8,406.3,408.8,406.3,408.7,406.3z"/>
	<path d="M209.9,445.9c2.2-1.1,4.1,0,6,0.8C213.7,448.1,211.9,446.3,209.9,445.9L209.9,445.9z"/>
	<path d="M250.5,442.6c3.1,0,6.2,0,9.2,0c0,0.2,0,0.4,0,0.5C256.6,443.4,253.5,443.8,250.5,442.6
		C250.5,442.6,250.5,442.6,250.5,442.6z"/>
	<path d="M405,296.8c0,4.7,0,9.5,0,14.2c0,0,0,0-0.1,0C405,306.4,405,301.6,405,296.8C405,296.8,405,296.8,405,296.8z"/>
	<path d="M400.4,373.1c0.4,3.3,0.8,6.6,1.3,9.9c-0.2,0-0.4,0-0.6,0.1c-0.3-3.3-0.6-6.6-1-9.9C400.1,373.2,400.2,373.1,400.4,373.1z"
		/>
	<path d="M320.6,459.3c3.7-0.4,7.4-0.8,11.1-1.1c0,0.2,0,0.4,0,0.5c-3.7,0.3-7.4,0.6-11.2,0.9C320.6,459.5,320.6,459.3,320.6,459.3z
		"/>
	<path d="M375.9,433.9c1.8-0.6,3.4-2.1,5.9-1.1c-2.1,0.7-3.9,1.3-5.7,1.9C376.1,434.4,376,434.2,375.9,433.9z"/>
	<path d="M211.4,450.6c3.1,1,6.2,2,9.3,2.9C217.4,453.4,214.2,452.6,211.4,450.6L211.4,450.6z"/>
	<path d="M415.6,287.3c0-4,0-7.9,0-12c0,0,0.1,0,0.2,0c0,4,0,8,0,12C415.7,287.3,415.6,287.3,415.6,287.3z"/>
	<path d="M319,86.6c-1.4-0.1-2.8-0.2-4.2-0.3c0-0.4,0-0.8,0.1-1.1c1.4,0.1,2.8,0.2,4.2,0.4C319,85.9,319,86.2,319,86.6z"/>
	<path d="M211.5,450.5c-1.7-1.1-3.3-2.1-5-3.3c0.2-0.3,0.5-0.6,0.7-0.9C208.6,447.8,210,449.2,211.5,450.5
		C211.4,450.6,211.5,450.5,211.5,450.5z"/>
	<path d="M226,93.1c2.7-0.4,2.7-0.4,3,1.3c-0.8,0.1-1.7,0.2-2.3,0.3C226.4,94.1,226.2,93.6,226,93.1z"/>
	<path d="M404.9,323.7c0-3.2,0-6.3,0-9.5c0,0,0.1,0,0.1,0c0,3.1,0,6.3,0,9.4C405,323.7,405,323.7,404.9,323.7z"/>
	<path class="st0" d="M320.2,101.7c0,0.7,0.1,1.5,0.2,2.5c-26.1,0-52-0.8-77.8,1.4c25.9-0.9,51.8-1.2,77.7-0.5c0,1.1,0,2,0,3.1
		c-36.5-0.5-73-0.4-109.3,3.3c1.7-0.4,3.3-0.8,5.4-1.3c-0.9-0.2-1.5-0.4-1.7-0.4c2.9-0.8,6.1-1.8,9.3-2.6c3.2-0.8,6.5-1.8,9.7-2
		c24.6-1.3,49.3-2.4,73.9-3.5C311.9,101.5,316,101.7,320.2,101.7z"/>
	<path class="st0" d="M213.7,104.6c1-0.4,2.1-1,3.1-1.1c8.9-1.2,17.8-2.6,26.7-3.4c9-0.8,18.1-1.1,27.1-1.5c2-0.1,4,0.1,6,0.3
		c0.4,0,0.8,0.6,1.3,0.9c-0.1,0.2-0.1,0.4-0.2,0.5c-21.3,1.7-42.5,3.5-63.8,5.2C213.9,105.2,213.8,104.9,213.7,104.6z"/>
	<path class="st0" d="M271.4,55.1c-0.5,0.2-0.9,0.6-1.4,0.6c-2.6,0-5.4,1.2-7.9-0.5c-0.3-0.2-1.1-0.1-1.2,0.1
		c-0.8,1.8-2.5,1.2-3.8,1.3c-12.5,0.9-25.1,1.9-37.6,2.8c-2,0.1-3.9,0-5.9,0c0-0.3-0.1-0.6-0.2-0.9c2.5-0.6,5-1.3,7.5-1.8
		c11.2-2.1,22.5-2.1,33.8-2.4c4.8-0.1,9.6-0.1,14.5-0.2c0.7,0,1.4,0.1,2.1,0.2C271.3,54.6,271.3,54.9,271.4,55.1z"/>
	<path class="st0" d="M370,49.2c-9.6-0.4-18.4-0.8-27.3-1.2c0,0.1,0,0.3-0.1,0.4c0.4-0.1,0.7-0.3,1.1-0.4c0-0.1,0-0.2,0-0.3
		c-0.8,0-1.5,0.1-2.2,0.1c-0.4,0-1,0.3-1.1,0.1c-2.2-3.1-3.2,0.2-4.3,1c-2.2,1.7-4.2,3.7-6.6,5.2c1.2-2.6,2.4-5.2,5-6.4
		c3.6-1.7,7.3-2.8,11.3-2.9c2.7,0,5.4-0.8,8-0.4c4.6,0.7,9.1,1.9,13.6,3C368.3,47.7,369,48.5,370,49.2z"/>
	<path class="st0" d="M364.9,105c-1.5,0-2.8,0-4.2,0c0,0.1,0,0.2,0,0.3c0.8,0.1,1.6,0.2,2.3,0.3c-9.6-0.3-19.1-0.6-29-0.9
		c0.2-1.2,0.4-2.2,0.7-3.6c7.1,0.4,14,0.8,20.9,1.2c2.3,0.1,4.6,0.4,6.9,0.4C364.2,102.7,365,103.3,364.9,105z"/>
	<path class="st0" d="M285.1,96.9c-1.3,0.1-2.6,0.4-4,0.4c-11.3,0.5-22.7,0.8-34,1.5c-8,0.5-16.1,1.7-24.1,2.5
		c-0.7,0.1-1.4,0.1-2.2-0.2c2.5-0.6,5.1-1.3,7.8-1.9c-3.4-0.1-6.7-0.3-10-0.4c0-0.1,0-0.2,0-0.3c0.8-0.3,1.7-0.5,2.5-0.8h0
		c5,0,10-0.1,15-0.2c15.6-0.3,31.3-0.5,46.9-0.8c0.6,0,1.3,0.2,1.9,0.3L285.1,96.9z"/>
	<path class="st0" d="M248.7,50.1c2-0.3,4-0.6,6-0.7c2.9-0.2,5.9-0.2,8.9-0.2c17.5,0.2,35.1,0.4,52.6,0.6c2,0,4,0.3,6,0.9
		c-0.8,0-1.6,0.2-2.4,0.2c-12.8-0.2-25.6-0.6-38.4-0.6c-9.8,0-19.6,0.4-29.5,0.5c-1.1,0-2.1-0.4-3.2-0.6
		C248.8,50.2,248.7,50.1,248.7,50.1z"/>
	<path class="st0" d="M411.2,403.8c0.7,0.3,1.4,0.5,2.3,0.9c0.6-0.9,1.2-1.8,1.7-2.7c0.1,0,0.2,0.1,0.3,0.1c-0.7,2-1.4,4-2.1,6
		c0.1,0,0.2,0.1,0.2,0.2c0.4-0.4,0.7-0.8,1-1.3c0.1,0,0.2,0,0.3,0.1c-0.9,2.9-1.9,5.7-2.9,8.6c0.2,0.2,0.4,0.4,0.6,0.6
		c0.4-0.8,0.8-1.6,1.2-2.4c0.3,0.2,0.5,0.4,0.8,0.5c-0.6,1.2-1.2,2.4-2.1,4c0.6,1.7-0.9,5.1-3.1,6.3c-1.5,0.8-2.7,2-4,3
		c0,0-0.1-0.3,0-0.4c4.1-5.9,3.9-12.9,4.7-19.6c0.2-1.5,0.4-3,0.7-4.7c0.3,0.3,0.5,0.4,0.5,0.4C411.3,403.4,411.3,403.7,411.2,403.8
		c-0.2,3.5-0.5,6.9-0.8,10.4C411.9,410.8,412.7,407.4,411.2,403.8z"/>
	<path class="st0" d="M285.1,97c6.9-0.2,13.9-0.4,20.8-0.5c3.3,0,6.7,0.2,10,0.4c0.8,0,1.7,0.4,2.5,0.6c0,0.2,0.1,0.4,0.1,0.7
		c-0.6,0.2-1.3,0.6-1.9,0.7c-2.7,0.1-5.4,0.3-8.2,0.2c-5.8-0.2-11.7-0.6-17.6-0.9c-1.7-0.1-3.5-0.1-5.3-0.3c-0.2,0-0.3-0.6-0.4-0.9
		C285.1,96.9,285.1,97,285.1,97z"/>
	<path class="st0" d="M315.7,56.2c-0.1-0.6-0.1-1.1-0.2-1.4c-1.1,0.2-2.1,0.7-3,0.7c-10.9-0.2-21.9-0.4-32.9-0.7
		c0-0.3,0-0.6-0.1-0.8c0.5-0.1,1.1-0.3,1.7-0.3c11.1,0,22.1,0.1,33.2,0.1c0.8,0,1.7,0.1,2.4,0.4c0.6,0.2,1.2,0.8,1.7,1.2
		c-0.6,0.3-1.3,0.7-1.9,0.9C316.5,56.4,316.2,56.3,315.7,56.2z"/>
	<path class="st0" d="M256.2,111.5c21.3,0,42.7,0,64.1,0c0,0.2,0,0.4,0,0.6c-21.4,0-42.8,0-64.1,0
		C256.2,111.9,256.2,111.7,256.2,111.5z"/>
	<path class="st0" d="M340.9,43.7c-9.5-0.4-18.9-0.7-28.4-1c0-0.2,0-0.4-0.1-0.5c1.5-0.3,3-0.8,4.6-0.8c7.4,0.2,14.8,0.6,22.2,0.9
		c0.4,0,0.7,0.1,1,0.5c-0.8,0-1.5,0.1-2.2,0.1c0,0,0,0.1,0,0.2c1,0.1,2,0.2,2.9,0.4C340.9,43.5,340.9,43.6,340.9,43.7z"/>
	<path class="st0" d="M223.3,111.8c12.7-0.5,25.4-0.9,38-1.4c0,0.2,0,0.5,0,0.7c-12.7,0.1-25.3,2.5-38,1.7
		C223.3,112.5,223.3,112.1,223.3,111.8z"/>
	<path class="st0" d="M368.3,83.4c-0.2-0.7-0.7-1.4-0.7-2.1c-0.1-6-0.2-12-0.4-18c0-1.5-0.2-2.9-0.2-4.4c0-0.7,0.5-1.4,0.8-2.1
		c0.3,0,0.5,0.1,0.8,0.2c0,8.8,0,17.5,0,26.3C368.6,83.3,368.5,83.3,368.3,83.4z"/>
	<path class="st0" d="M364,53.7c0.1-0.4,0.2-0.7,0.3-1c-0.8,0.2-1.5,0.4-2.6,0.6c-3.5-2.1-7.9-1.8-12.1-2.2
		c-2.9-0.3-5.9-0.4-9.1-0.7c6.1-1.7,20.4-0.8,26,1.9c-0.8,0.7-1.5,1.3-2.1,1.8C364.2,54,364.1,53.8,364,53.7z"/>
	<path class="st0" d="M406.3,252.9c0-12.9,0-25.9,0-38.8c0.3,0,0.5,0,0.8,0c0,6.2,0,12.3,0,18.5c0,6-0.2,12-0.3,18
		C406.8,251.4,406.5,252.1,406.3,252.9L406.3,252.9z"/>
	<path class="st0" d="M371.1,93.4c-0.4-0.6-0.6-1-1-1.6c-0.4,0.9-0.9,1.8-1.3,2.7c0.6-3.1-0.7-6.6,1.5-9.4
		C373,86,373.6,90.6,371.1,93.4z"/>
	<path class="st0" d="M248.7,50.1l0.1,0.1c0,0.3,0,0.9,0,0.9c-4.8,0.5-9.6,0.9-14.5,1.4c0-0.2,0-0.4-0.1-0.6
		c0.6-0.1,1.2-0.2,1.8-0.4c0,0,0-0.1,0-0.2c-0.7,0-1.4-0.1-2.1-0.1c0,0,0-0.1,0-0.2c4.4-0.4,8.9-0.8,13.3-1.3
		C247.7,49.8,248.2,50,248.7,50.1z"/>
	<path class="st0" d="M365.9,83.2c0-7.8,0-15.5,0-23.4c0.2,0,0.4,0,0.6,0c0,7.8,0,15.6,0,23.4C366.3,83.2,366.1,83.2,365.9,83.2z"/>
	<path class="st0" d="M347.5,98.7c1.2,0.2,2.3,0.4,3.5,0.6c0,0.1,0,0.2,0,0.3c-3.4-0.3-6.7-0.6-10.4-0.8c2.9-2.2,6-1.3,8.8-1.3
		c3,0,6.1,0.3,9.1,0.6c-3.7,0-7.3,0-11,0C347.5,98.3,347.5,98.5,347.5,98.7z"/>
	<path class="st0" d="M406.7,264.4c0,6.7,0,13.4,0,20.1c-0.1,0-0.3,0-0.4,0c0-6.7,0-13.4,0-20C406.4,264.4,406.5,264.4,406.7,264.4z
		"/>
	<path class="st0" d="M357.8,122.3c-0.2-1.5-0.4-3.1-0.7-4.6c0.2,0,0.5-0.1,0.7-0.1c0.1,0.5,0.2,1.1,0.4,1.6c0.3,1.1,0.3,2.5,1,3.3
		c2.4,2.3,2.1,3,6,0.3c-0.4,0.6-0.6,1.7-1.2,1.8c-1.3,0.3-2.7,0.5-3.9,0.1C359.2,124.3,358.6,123.1,357.8,122.3
		C357.8,122.2,357.8,122.3,357.8,122.3z"/>
	<path class="st0" d="M360.7,88.7c0.1-0.8,0.2-1.4,0.3-2.3c1.7,0.6,3.1,1.1,4.5,1.7c0.4,0.2,0.4,0.9,0.7,1.4
		c-0.4,0.1-0.9,0.4-1.4,0.4C363.5,89.5,362.2,89.1,360.7,88.7z"/>
	<path class="st0" d="M362.2,95.3c-2.1,1.6-4.2,1.6-11.2,0C354.5,95.3,358.1,95.3,362.2,95.3z"/>
	<path class="st0" d="M379.7,158.2c0-2.4-3.2-3.7-1.5-6.3C380.3,153.8,381.2,157.1,379.7,158.2z"/>
	<path class="st0" d="M328.9,106.6c-1.1,0.6-2.1,1.2-3.5,1.9c0-1.3,0-2.2,0-3.4C326.6,105.7,328.7,103.7,328.9,106.6
		C328.9,106.7,328.9,106.6,328.9,106.6z"/>
	<path class="st0" d="M354.8,115.8c0-0.8-0.1-1.6-0.1-3c1.7,0.6,3,1.1,4.3,1.6c0,0.2,0,0.4-0.1,0.7
		C357.5,115.3,356.2,115.5,354.8,115.8z"/>
	<path class="st0" d="M318.1,60c-3.2,0-6.4,0-9.6,0c0-0.1,0-0.2,0-0.4c3.2,0,6.5,0,9.7,0C318.1,59.8,318.1,59.9,318.1,60z"/>
	<path class="st0" d="M209.5,132.2c1.1-0.3,2.1-0.5,3.1-0.8c0.2,0.2,0.3,0.4,0.5,0.5c-0.8,0.9-1.7,1.8-2.4,2.6
		C210.4,133.7,210,133,209.5,132.2z"/>
	<path class="st0" d="M361.5,119.5c1.9-1.1,2.5-0.2,2.7,0.9c0.1,0.4-0.3,0.9-0.5,1.4C363,121.1,362.4,120.4,361.5,119.5z"/>
	<path class="st0" d="M293.9,43.6c-3.3,0-6.7,0-10,0c0,0,0-0.1,0-0.1C287.2,43.6,290.6,43.6,293.9,43.6
		C293.9,43.6,293.9,43.6,293.9,43.6z"/>
	<path class="st0" d="M209.5,63.1c1.7-0.5,3.5-0.9,5.2-1.4c0.1,0.3,0.2,0.6,0.3,0.9c-1.8,0.4-3.5,0.8-5.3,1.3
		C209.7,63.6,209.6,63.3,209.5,63.1z"/>
	<path class="st0" d="M374.9,129.3c1.6-0.1,3.1-0.2,4.7-0.3c0,0.2,0,0.4,0.1,0.7c-1.6,0.2-3.1,0.4-4.6,0.6
		C374.9,129.9,374.9,129.6,374.9,129.3z"/>
	<path class="st0" d="M406.3,252.9c0.2,2.9,0.3,5.9,0.5,8.8c-0.1,0-0.3,0-0.4,0C406.3,258.8,406.3,255.9,406.3,252.9
		C406.3,252.9,406.3,252.9,406.3,252.9z"/>
	<path class="st0" d="M184.9,277.9c0,20.3,0,40.6,0,61c-0.1,0-0.2,0-0.3,0c0-20.3,0-40.7,0-61C184.8,277.9,184.9,277.9,184.9,277.9z
		"/>
	<path class="st0" d="M183.7,256.4c0-12.7,0-25.5,0-38.1c0.1,0,0.3,0,0.4,0c0,12.7,0,25.5,0,38.2C184,256.4,183.8,256.4,183.7,256.4
		z"/>
	<path class="st0" d="M183.3,214.6c-0.1-1.2-0.3-2.3-0.3-3.4c-0.2-3.7-0.3-7.4-0.4-11.1c0-1.3,0.3-2,1.5-1.6c0,5.4,0,10.7,0,16
		C183.9,214.6,183.6,214.6,183.3,214.6z"/>
	<path class="st0" d="M185.2,341c0,8.6,0,17.2,0,25.9c-0.1,0-0.1,0-0.2,0c0-8.6,0-17.2,0-25.8C185,341.1,185.1,341.1,185.2,341z"/>
	<path class="st0" d="M191.6,423.5c-0.5,0-1.3,0-1.4-0.2c-0.2-0.4-0.1-1.2,0.1-1.7c0-0.2,0.9-0.1,1.3,0c0.7,0.4,1.3,0.9,2,1.4
		c-0.4,0.3-0.7,0.6-1,0.9C192.3,423.8,191.9,423.7,191.6,423.5z"/>
	<path class="st0" d="M191.6,423.5c0.4,0.2,0.7,0.3,1,0.5c1.1,0.5,2.1,0.9,3.2,1.4c-0.2,0.4-0.4,0.8-0.6,1.2
		c-1.4-0.8-2.8-1.5-4.2-2.2C191.2,424.1,191.4,423.8,191.6,423.5z"/>
	<path class="st0" d="M354.6,445c-2.5,0-4.9,0-7.4,0c0-0.2,0-0.4,0-0.7c2.5,0.1,5,0.2,7.5,0.4C354.7,444.7,354.6,444.8,354.6,445z"
		/>
	<path d="M411.2,403.8c1.6,3.6,0.8,7-0.8,10.4C410.7,410.8,410.9,407.3,411.2,403.8C411.2,403.9,411.2,403.8,411.2,403.8z"/>
</g>
</svg>
